<svg fill="none" height="128" width="128" xmlns="http://www.w3.org/2000/svg" xmlns:xlink="http://www.w3.org/1999/xlink"><mask id="a" height="128" maskUnits="userSpaceOnUse" width="128" x="0" y="0"><rect fill="#fff" height="128" rx="20" width="128"/></mask><rect fill="#4bee8c" height="128" rx="20" width="128"/><g fill="#1f1534" mask="url(#a)"><path d="m55.048 91.317 22.158-50.984h5.905v24.889l-20.19 46.222h-15.555l-40.254-92.444h17.587z"/><path d="m78.474 22.048c-2.952-1.977-5.588-3.048-10.41-3.048h-68.064l-.062 12.349h62.405c2.214 0 4.961.568 6.241 1.705 1.328 1.137 1.559 2.088 2.691 4.856l6.2 14.533 16.976 43.954c1.427 3.953 2.903 6.992 4.429 9.117s3.248 3.657 5.167 4.595c1.919.89 5.773 1.335 9.562 1.335l14.391.056v-12.99h-11.882c-1.723 0-3.15-.469-4.282-1.408-1.082-.988-2.115-1.742-3.1-4.263l-23.397-60.785c-1.624-4.694-3.912-8.03-6.864-10.006z"/></g></svg>