<svg xmlns="http://www.w3.org/2000/svg" width="512" height="128" fill="none" xmlns:v="https://vecta.io/nano"><g fill="#1f1534"><path d="M0 0h512v128H0z"/><path d="M0 0h128v128H0z"/></g><path fill="#4bee8c" d="M0 0h128v128H0z"/><mask id="A" mask-type="alpha" maskUnits="userSpaceOnUse" x="0" y="0" width="128" height="128"><rect width="128" height="128" rx="20" fill="#fff"/></mask><g mask="url(#A)"><path d="M55.048 91.317l22.158-50.984h5.905v24.889l-20.19 46.222H47.366L7.112 19h17.587l30.349 72.317z" fill="#1f1534"/><path d="M78.474 22.048C75.522 20.071 72.886 19 68.064 19H0l-.062 12.349h62.405c2.214 0 4.961.568 6.241 1.705 1.328 1.137 1.559 2.088 2.691 4.856l6.2 14.533 16.976 43.954c1.427 3.953 2.903 6.992 4.429 9.117s3.248 3.657 5.167 4.595c1.919.89 5.773 1.335 9.562 1.335L128 111.5V98.51h-11.882c-1.723 0-3.15-.469-4.282-1.408-1.082-.988-2.115-1.742-3.1-4.263L85.339 32.054c-1.624-4.694-3.912-8.03-6.864-10.006z" fill="#1f1534"/></g><path d="M182.34 90h-6.03c-.6 0-1.02-.09-1.26-.27-.24-.24-.48-.69-.72-1.35l-14.31-36.63h-5.04c-.72 0-1.08-.36-1.08-1.08V46.8c0-.72.36-1.08 1.08-1.08h16.74c.72 0 1.08.36 1.08 1.08v3.87c0 .72-.36 1.08-1.08 1.08h-3.96l11.52 30.33h.18l11.7-30.33h-4.05c-.72 0-1.08-.36-1.08-1.08V46.8c0-.72.36-1.08 1.08-1.08h16.74c.78 0 1.17.36 1.17 1.08v3.87c0 .72-.39 1.08-1.17 1.08h-4.95l-14.49 36.63c-.36 1.08-1.05 1.62-2.07 1.62zm45.35 0H210.5c-.78 0-1.17-.36-1.17-1.08v-3.87c0-.72.39-1.08 1.17-1.08h4.95V51.75h-4.95c-.78 0-1.17-.36-1.17-1.08V46.8c0-.72.39-1.08 1.17-1.08h11.34c.72 0 1.08.36 1.08 1.08v37.17h4.77c.78 0 1.17.36 1.17 1.08v3.87c0 .72-.39 1.08-1.17 1.08zm-5.13-57.6c1.02 1.02 1.53 2.22 1.53 3.6s-.51 2.55-1.53 3.51c-.96.96-2.13 1.44-3.51 1.44s-2.58-.48-3.6-1.44c-.96-.96-1.44-2.13-1.44-3.51s.48-2.58 1.44-3.6c1.02-1.02 2.22-1.53 3.6-1.53s2.55.51 3.51 1.53zm42.582 53.01c.24.24.36.51.36.81 0 .24-.18.54-.54.9-2.64 2.34-5.97 3.51-9.99 3.51-3.96 0-7.23-1.29-9.81-3.87-2.52-2.64-3.78-6.45-3.78-11.43V51.75h-5.04c-.84 0-1.26-.39-1.26-1.17v-3.69c0-.78.42-1.17 1.26-1.17h5.04v-9.09c0-.84.42-1.26 1.26-1.26h5.04c.78 0 1.17.42 1.17 1.26v9.09h11.43c.84 0 1.26.39 1.26 1.17v3.69c0 .78-.42 1.17-1.26 1.17h-11.43v23.4c0 3 .66 5.28 1.98 6.84 1.38 1.5 3.18 2.25 5.4 2.25 2.28 0 3.99-.57 5.13-1.71.6-.54 1.14-.51 1.62.09l2.16 2.79zM315.131 90h-7.83c-2.58 0-3.87-1.26-3.87-3.78v-4.59h-.18c-4.38 6.06-10.23 9.09-17.55 9.09-4.32 0-7.86-1.11-10.62-3.33-2.76-2.28-4.14-5.34-4.14-9.18 0-4.92 2.13-8.52 6.39-10.8 4.32-2.34 10.23-3.51 17.73-3.51h7.56v-1.08c0-7.5-3.9-11.25-11.7-11.25-3.66 0-6.3.36-7.92 1.08-1.62.66-2.79 1.2-3.51 1.62l-1.53.99c-.9.72-1.56.78-1.98.18l-2.52-3.15c-.42-.48-.36-.96.18-1.44 1.02-1.32 3.12-2.61 6.3-3.87s6.93-1.89 11.25-1.89c12.6 0 18.9 6 18.9 18v20.88h5.04c.72 0 1.08.36 1.08 1.08v3.87c0 .72-.36 1.08-1.08 1.08zm-12.51-20.7h-7.11c-3.48 0-6.36.18-8.64.54s-4.23 1.14-5.85 2.34c-1.56 1.2-2.34 2.85-2.34 4.95s.84 3.84 2.52 5.22c1.74 1.32 3.99 1.98 6.75 1.98 5.82 0 10.71-2.58 14.67-7.74V69.3zM398.753 90h-8.55c-1.38 0-2.4-.27-3.06-.81-.6-.6-.9-1.59-.9-2.97V62.55c0-3.48-.84-6.18-2.52-8.1-1.62-1.92-4.05-2.88-7.29-2.88-4.74 0-8.46 2.07-11.16 6.21.36 1.08.54 2.28.54 3.6v22.59h5.04c.72 0 1.08.36 1.08 1.08v3.87c0 .72-.36 1.08-1.08 1.08h-17.19c-.78 0-1.17-.36-1.17-1.08v-3.87c0-.72.39-1.08 1.17-1.08h4.77V62.55c0-3.48-.84-6.18-2.52-8.1s-4.14-2.88-7.38-2.88c-2.46 0-4.35.39-5.67 1.17-1.26.72-2.22 1.38-2.88 1.98-.66.54-1.2 1.08-1.62 1.62a17.05 17.05 0 0 0-1.8 2.97v24.66h4.41c.72 0 1.08.36 1.08 1.08v3.87c0 .72-.36 1.08-1.08 1.08h-16.83c-.78 0-1.17-.36-1.17-1.08v-3.87c0-.72.39-1.08 1.17-1.08h4.95V51.75h-4.95c-.78 0-1.17-.36-1.17-1.08V46.8c0-.72.39-1.08 1.17-1.08h8.82c1.02 0 1.74.21 2.16.63.48.36.72 1.05.72 2.07l-.18 4.5h.27c3.12-5.22 7.95-7.83 14.49-7.83 6.6 0 11.1 2.49 13.5 7.47 3.42-4.98 8.25-7.47 14.49-7.47 4.8 0 8.52 1.41 11.16 4.23 2.7 2.82 4.05 6.63 4.05 11.43l.09 23.22h5.04c.78 0 1.17.36 1.17 1.08v3.87c0 .72-.39 1.08-1.17 1.08zm25.812 0h-17.19c-.78 0-1.17-.36-1.17-1.08v-3.87c0-.72.39-1.08 1.17-1.08h4.95V51.75h-4.95c-.78 0-1.17-.36-1.17-1.08V46.8c0-.72.39-1.08 1.17-1.08h11.34c.72 0 1.08.36 1.08 1.08v37.17h4.77c.78 0 1.17.36 1.17 1.08v3.87c0 .72-.39 1.08-1.17 1.08zm-5.13-57.6c1.02 1.02 1.53 2.22 1.53 3.6s-.51 2.55-1.53 3.51c-.96.96-2.13 1.44-3.51 1.44s-2.58-.48-3.6-1.44c-.96-.96-1.44-2.13-1.44-3.51s.48-2.58 1.44-3.6c1.02-1.02 2.22-1.53 3.6-1.53s2.55.51 3.51 1.53zM480.452 90h-8.55c-2.58 0-3.87-1.26-3.87-3.78V62.55c0-3.48-.84-6.18-2.52-8.1s-4.14-2.88-7.38-2.88c-4.62 0-8.22 1.89-10.8 5.67-.3.36-.69 1.02-1.17 1.98v24.75h4.77c.78 0 1.17.36 1.17 1.08v3.87c0 .72-.39 1.08-1.17 1.08h-17.19c-.78 0-1.17-.36-1.17-1.08v-3.87c0-.72.39-1.08 1.17-1.08h4.95V51.75h-4.95c-.78 0-1.17-.36-1.17-1.08V46.8c0-.72.39-1.08 1.17-1.08h10.53c.78 0 1.17.36 1.17 1.08l-.18 6.12h.27c3.12-5.22 7.95-7.83 14.49-7.83 4.8 0 8.55 1.41 11.25 4.23s4.08 6.63 4.14 11.43v23.22h5.04c.78 0 1.17.36 1.17 1.08v3.87c0 .72-.39 1.08-1.17 1.08z" fill="#fff"/></svg>