<svg width="128" height="128" viewBox="0 0 128 128" fill="none" xmlns="http://www.w3.org/2000/svg">
<g clip-path="url(#clip0)">
<rect width="128" height="128" rx="20" fill="white"/>
<path d="M55.0482 91.3169L77.2067 40.3332H83.1114V53.5394V65.2219L62.9211 111.444H47.3657L7.11203 19H24.6992L55.0482 91.3169Z" fill="url(#paint0_linear)"/>
<path d="M78.4742 22.0476C75.5217 20.071 72.8863 19 68.064 19C65.456 19 -0.0621338 19 -0.0621338 19V30.3492H63.343C65.5573 30.3492 67.3042 30.9175 68.5836 32.054C69.9121 33.1906 71.1423 35.1424 72.2741 37.9096L78.4741 52.4429L95.4506 96.3969C96.8776 100.35 98.3538 103.389 99.8792 105.514C101.405 107.639 103.127 109.171 105.046 110.109C106.965 110.999 109.819 111.444 113.608 111.444C115.675 111.444 128 111.444 128 111.444V99.5101H116.117C114.395 99.5101 112.968 99.0406 111.836 98.1017C110.754 97.1135 109.721 95.3592 108.736 92.8391L85.3385 32.054C83.7147 27.3596 81.4266 24.0242 78.4742 22.0476Z" fill="url(#paint1_linear)"/>
<rect x="0.5" y="0.5" width="127" height="127" rx="19.5" stroke="url(#paint2_linear)"/>
</g>
<defs>
<linearGradient id="paint0_linear" x1="45.1117" y1="19" x2="45.1117" y2="111.444" gradientUnits="userSpaceOnUse">
<stop stop-color="#00FFE0"/>
<stop offset="1" stop-color="#00FF19"/>
</linearGradient>
<linearGradient id="paint1_linear" x1="63.9689" y1="19" x2="63.9689" y2="111.444" gradientUnits="userSpaceOnUse">
<stop stop-color="#00FFE0"/>
<stop offset="1" stop-color="#00FF19"/>
</linearGradient>
<linearGradient id="paint2_linear" x1="64" y1="0" x2="64" y2="128" gradientUnits="userSpaceOnUse">
<stop stop-color="#EAEAEA"/>
<stop offset="1" stop-color="#E1E1E1"/>
</linearGradient>
<clipPath id="clip0">
<rect width="128" height="128" fill="white"/>
</clipPath>
</defs>
</svg>
