<svg width="297" height="58" viewBox="0 0 297 58" fill="none" xmlns="http://www.w3.org/2000/svg">
<path d="M132.797 3.73906C131.391 2.80156 129.539 2.33281 127.242 2.33281C126 2.33281 124.887 2.47343 123.902 2.75468L123.938 7.74687L125.59 7.67656C126.645 7.67656 127.477 7.94609 128.086 8.48515C128.719 9.02422 129.305 9.95 129.844 11.2625L133.219 19.5242L119.367 55.7H126.609L136.664 28.3133L144.75 49.1609C145.43 51.0359 146.133 52.4773 146.859 53.4852C147.586 54.493 148.406 55.2195 149.32 55.6648C150.234 56.0867 151.594 56.2977 153.398 56.2977C154.383 56.2977 155.297 56.157 156.141 55.8758L155.93 50.532L154.594 50.6375C153.773 50.6375 153.094 50.4148 152.555 49.9695C152.039 49.5008 151.547 48.6687 151.078 47.4734L136.066 8.48515C135.293 6.25859 134.203 4.67656 132.797 3.73906Z" fill="black"/>
<path d="M15.4203 13H0V19.3514H10.8096L26.9421 55.75H34.4288L50.245 19.4125H66.3751V49.3375H56.4537V55.75H82.4857V49.3375H72.9487V19.4125H96.8207V55.75H103.394V19.4125H118.794V13.0814L45.306 13L35.0983 38.7111C34.4897 40.2582 33.7998 41.9275 33.0289 43.7189C32.2984 45.4696 31.6086 47.2 30.9594 48.91C30.3101 47.2 29.5594 45.4493 28.7073 43.6579C27.8957 41.8257 27.1653 40.1361 26.5161 38.5889L15.4203 13Z" fill="black"/>
<path d="M164.86 13.0814L181.964 35.8611L199.068 13.0814H247.712L278.145 46.3043V13.0814H297V19.4329H284.719V55.75H278.206L247.894 22.6789V55.75H241.321V19.4939H226.641V49.4189H236.624V55.75H210.146V49.4189H220.068V19.4939H205.398V55.75H198.824V24.1315L183.912 43.5561H179.895L164.86 23.5993L164.982 55.75H158.408V13.0814H164.86Z" fill="black"/>
</svg>
